mtllib model_28.mtl
o model_28
v 779.634765625 390.5759582519531 992.3915405273438 
v 779.634765625 302.6622619628906 992.3915405273438 
v 933.2991943359375 390.5759582519531 992.3915405273438 
v 933.2991943359375 302.6622619628906 992.3915405273438 
v 933.2991943359375 302.6622619628906 990.7574462890625 
v 779.634765625 302.6622619628906 990.7574462890625 
v 933.2991943359375 390.5759582519531 990.7574462890625 
v 779.634765625 390.5759582519531 990.7574462890625 
v 933.2991943359375 390.5759582519531 992.3915405273438 
v 933.2991943359375 302.6622619628906 992.3915405273438 
v 933.2991943359375 390.5759582519531 990.7574462890625 
v 933.2991943359375 302.6622619628906 990.7574462890625 
v 933.2991943359375 302.6622619628906 992.3915405273438 
v 779.634765625 302.6622619628906 992.3915405273438 
v 933.2991943359375 302.6622619628906 990.7574462890625 
v 779.634765625 302.6622619628906 990.7574462890625 
v 779.634765625 302.6622619628906 992.3915405273438 
v 779.634765625 390.5759582519531 992.3915405273438 
v 779.634765625 302.6622619628906 990.7574462890625 
v 779.634765625 390.5759582519531 990.7574462890625 
v 779.634765625 390.5759582519531 992.3915405273438 
v 933.2991943359375 390.5759582519531 992.3915405273438 
v 779.634765625 390.5759582519531 990.7574462890625 
v 933.2991943359375 390.5759582519531 990.7574462890625 
v 933.1952514648438 390.5759582519531 -1385.29150390625 
v 933.1952514648438 302.6622619628906 -1385.29150390625 
v 779.5308227539062 390.5759582519531 -1385.29150390625 
v 779.5308227539062 302.6622619628906 -1385.29150390625 
v 779.5308227539062 302.6622619628906 -1383.657470703125 
v 933.1952514648438 302.6622619628906 -1383.657470703125 
v 779.5308227539062 390.5759582519531 -1383.657470703125 
v 933.1952514648438 390.5759582519531 -1383.657470703125 
v 779.5308227539062 390.5759582519531 -1385.29150390625 
v 779.5308227539062 302.6622619628906 -1385.29150390625 
v 779.5308227539062 390.5759582519531 -1383.657470703125 
v 779.5308227539062 302.6622619628906 -1383.657470703125 
v 779.5308227539062 302.6622619628906 -1385.29150390625 
v 933.1952514648438 302.6622619628906 -1385.29150390625 
v 779.5308227539062 302.6622619628906 -1383.657470703125 
v 933.1952514648438 302.6622619628906 -1383.657470703125 
v 933.1952514648438 302.6622619628906 -1385.29150390625 
v 933.1952514648438 390.5759582519531 -1385.29150390625 
v 933.1952514648438 302.6622619628906 -1383.657470703125 
v 933.1952514648438 390.5759582519531 -1383.657470703125 
v 933.1952514648438 390.5759582519531 -1385.29150390625 
v 779.5308227539062 390.5759582519531 -1385.29150390625 
v 933.1952514648438 390.5759582519531 -1383.657470703125 
v 779.5308227539062 390.5759582519531 -1383.657470703125 
vn 0 0 1.1500003337860107 
vn 0 0 1.1500003337860107 
vn 0 0 1.1500003337860107 
vn 0 0 1.1500003337860107 
vn -2.3784663474857304e-13 0 -1.1500003337860107 
vn -2.3784663474857304e-13 0 -1.1500003337860107 
vn -2.3784663474857304e-13 0 -1.1500003337860107 
vn -2.3784663474857304e-13 0 -1.1500003337860107 
vn 1.149997591972351 0 0.002512398874387145 
vn 1.149997591972351 0 0.002512398874387145 
vn 1.149997591972351 0 0.002512398874387145 
vn 1.149997591972351 0 0.002512398874387145 
vn 3.562583984328266e-13 -1.149997591972351 0.002512398874387145 
vn 3.562583984328266e-13 -1.149997591972351 0.002512398874387145 
vn 3.562583984328266e-13 -1.149997591972351 0.002512398874387145 
vn 3.562583984328266e-13 -1.149997591972351 0.002512398874387145 
vn -1.149997591972351 -2.378460655424325e-13 0.002512398874387145 
vn -1.149997591972351 -2.378460655424325e-13 0.002512398874387145 
vn -1.149997591972351 -2.378460655424325e-13 0.002512398874387145 
vn -1.149997591972351 -2.378460655424325e-13 0.002512398874387145 
vn -1.1892303277121624e-13 1.149997591972351 0.002512398874387145 
vn -1.1892303277121624e-13 1.149997591972351 0.002512398874387145 
vn -1.1892303277121624e-13 1.149997591972351 0.002512398874387145 
vn -1.1892303277121624e-13 1.149997591972351 0.002512398874387145 
vn 1.408344211345188e-16 1.408344211345188e-16 -1.1500003337860107 
vn 1.408344211345188e-16 1.408344211345188e-16 -1.1500003337860107 
vn 1.408344211345188e-16 1.408344211345188e-16 -1.1500003337860107 
vn 1.408344211345188e-16 1.408344211345188e-16 -1.1500003337860107 
vn 2.3770579688636717e-13 -1.408344211345188e-16 1.1500003337860107 
vn 2.3770579688636717e-13 -1.408344211345188e-16 1.1500003337860107 
vn 2.3770579688636717e-13 -1.408344211345188e-16 1.1500003337860107 
vn 2.3770579688636717e-13 -1.408344211345188e-16 1.1500003337860107 
vn -1.149997591972351 1.411417617454741e-16 -0.002512398874387145 
vn -1.149997591972351 1.411417617454741e-16 -0.002512398874387145 
vn -1.149997591972351 1.411417617454741e-16 -0.002512398874387145 
vn -1.149997591972351 1.411417617454741e-16 -0.002512398874387145 
vn -3.56398938139435e-13 -1.149997591972351 -0.002512398874387145 
vn -3.56398938139435e-13 -1.149997591972351 -0.002512398874387145 
vn -3.56398938139435e-13 -1.149997591972351 -0.002512398874387145 
vn -3.56398938139435e-13 -1.149997591972351 -0.002512398874387145 
vn 1.149997591972351 -2.379865781439866e-13 -0.002512398874387145 
vn 1.149997591972351 -2.379865781439866e-13 -0.002512398874387145 
vn 1.149997591972351 -2.379865781439866e-13 -0.002512398874387145 
vn 1.149997591972351 -2.379865781439866e-13 -0.002512398874387145 
vn 1.1906416878901954e-13 1.149997591972351 -0.002512398874387145 
vn 1.1906416878901954e-13 1.149997591972351 -0.002512398874387145 
vn 1.1906416878901954e-13 1.149997591972351 -0.002512398874387145 
vn 1.1906416878901954e-13 1.149997591972351 -0.002512398874387145 
s on 
f 1//1 2//2 3//3 
f 2//2 4//4 3//3 
f 3//3 4//4 4//4 
f 4//4 5//5 4//4 
f 4//4 5//5 5//5 
f 5//5 6//6 5//5 
f 5//5 6//6 7//7 
f 6//6 8//8 7//7 
f 7//7 8//8 8//8 
f 8//8 9//9 8//8 
f 8//8 9//9 9//9 
f 9//9 10//10 9//9 
f 9//9 10//10 11//11 
f 10//10 12//12 11//11 
f 11//11 12//12 12//12 
f 12//12 13//13 12//12 
f 12//12 13//13 13//13 
f 13//13 14//14 13//13 
f 13//13 14//14 15//15 
f 14//14 16//16 15//15 
f 15//15 16//16 16//16 
f 16//16 17//17 16//16 
f 16//16 17//17 17//17 
f 17//17 18//18 17//17 
f 17//17 18//18 19//19 
f 18//18 20//20 19//19 
f 19//19 20//20 20//20 
f 20//20 21//21 20//20 
f 20//20 21//21 21//21 
f 21//21 22//22 21//21 
f 21//21 22//22 23//23 
f 22//22 24//24 23//23 
f 23//23 24//24 24//24 
f 24//24 25//25 24//24 
f 24//24 25//25 25//25 
f 25//25 26//26 25//25 
f 25//25 26//26 27//27 
f 26//26 28//28 27//27 
f 27//27 28//28 28//28 
f 28//28 29//29 28//28 
f 28//28 29//29 29//29 
f 29//29 30//30 29//29 
f 29//29 30//30 31//31 
f 30//30 32//32 31//31 
f 31//31 32//32 32//32 
f 32//32 33//33 32//32 
f 32//32 33//33 33//33 
f 33//33 34//34 33//33 
f 33//33 34//34 35//35 
f 34//34 36//36 35//35 
f 35//35 36//36 36//36 
f 36//36 37//37 36//36 
f 36//36 37//37 37//37 
f 37//37 38//38 37//37 
f 37//37 38//38 39//39 
f 38//38 40//40 39//39 
f 39//39 40//40 40//40 
f 40//40 41//41 40//40 
f 40//40 41//41 41//41 
f 41//41 42//42 41//41 
f 41//41 42//42 43//43 
f 42//42 44//44 43//43 
f 43//43 44//44 44//44 
f 44//44 45//45 44//44 
f 44//44 45//45 45//45 
f 45//45 46//46 45//45 
f 45//45 46//46 47//47 
f 46//46 48//48 47//47 

