mtllib model_21.mtl
o model_21
v 1006.2867431640625 48.32652282714844 -958.7042846679688 
v 1006.2867431640625 48.32652282714844 -1438.24169921875 
v 706.5428466796875 48.32652282714844 -958.7042846679688 
v 706.5428466796875 48.32652282714844 -1438.24169921875 
v 706.5428466796875 48.32652282714844 1045.859375 
v 1006.2867431640625 48.32652282714844 1045.859375 
v 706.5428466796875 48.32652282714844 566.322021484375 
v 1006.2867431640625 48.32652282714844 566.322021484375 
v 1519.0235595703125 48.55717849731445 -1441.8929443359375 
v 1514.4918212890625 48.55717849731445 -1437.0245361328125 
v 1519.0235595703125 48.55717849731445 1049.5107421875 
v 1514.4918212890625 48.55717849731445 1044.642333984375 
v 1514.4918212890625 48.55717849731445 1044.642333984375 
v 198.33778381347656 48.55717849731445 1044.642333984375 
v 1519.0235595703125 48.55717849731445 1049.5107421875 
v 193.8059844970703 48.55717849731445 1049.5107421875 
v 198.33778381347656 48.55717849731445 -1437.0245361328125 
v 1514.4918212890625 48.55717849731445 -1437.0245361328125 
v 193.8059844970703 48.55717849731445 -1441.8929443359375 
v 1519.0235595703125 48.55717849731445 -1441.8929443359375 
v 193.8059844970703 48.55717849731445 -1441.8929443359375 
v 193.8059844970703 48.55717849731445 1049.5107421875 
v 198.33778381347656 48.55717849731445 -1437.0245361328125 
v 198.33778381347656 48.55717849731445 1044.642333984375 
v 1519.0235595703125 48.55717849731445 1049.5107421875 
v 1519.0235595703125 47.36186599731445 1049.5107421875 
v 1519.0235595703125 48.55717849731445 -1441.8929443359375 
v 1519.0235595703125 47.36186599731445 -1441.8929443359375 
v 193.8059844970703 48.55717849731445 1049.5107421875 
v 193.8059844970703 47.36186599731445 1049.5107421875 
v 1519.0235595703125 48.55717849731445 1049.5107421875 
v 1519.0235595703125 47.36186599731445 1049.5107421875 
v 193.8059844970703 47.36186599731445 -1441.8929443359375 
v 193.8059844970703 48.55717849731445 -1441.8929443359375 
v 1519.0235595703125 47.36186599731445 -1441.8929443359375 
v 1519.0235595703125 48.55717849731445 -1441.8929443359375 
v 193.8059844970703 48.55717849731445 -1441.8929443359375 
v 193.8059844970703 47.36186599731445 -1441.8929443359375 
v 193.8059844970703 48.55717849731445 1049.5107421875 
v 193.8059844970703 47.36186599731445 1049.5107421875 
v 1514.4918212890625 48.55717849731445 -1437.0245361328125 
v 1514.4918212890625 47.36186599731445 -1437.0245361328125 
v 1514.4918212890625 48.55717849731445 1044.642333984375 
v 1514.4918212890625 47.36186599731445 1044.642333984375 
v 1514.4918212890625 48.55717849731445 1044.642333984375 
v 1514.4918212890625 47.36186599731445 1044.642333984375 
v 198.33778381347656 48.55717849731445 1044.642333984375 
v 198.33778381347656 47.36186599731445 1044.642333984375 
v 198.33778381347656 47.36186599731445 -1437.0245361328125 
v 1514.4918212890625 47.36186599731445 -1437.0245361328125 
v 198.33778381347656 48.55717849731445 -1437.0245361328125 
v 1514.4918212890625 48.55717849731445 -1437.0245361328125 
v 198.33778381347656 48.55717849731445 1044.642333984375 
v 198.33778381347656 47.36186599731445 1044.642333984375 
v 198.33778381347656 48.55717849731445 -1437.0245361328125 
v 198.33778381347656 47.36186599731445 -1437.0245361328125 
vn -1.0341130485562108e-13 0.999997615814209 0.002184694167226553 
vn -1.0341130485562108e-13 0.999997615814209 0.002184694167226553 
vn -1.0341130485562108e-13 0.999997615814209 0.002184694167226553 
vn -1.0341130485562108e-13 0.999997615814209 0.002184694167226553 
vn -1.0341130485562108e-13 0.999997615814209 0.002184694167226553 
vn -1.0341130485562108e-13 0.999997615814209 0.002184694167226553 
vn -1.0341130485562108e-13 0.999997615814209 0.002184694167226553 
vn -1.0341130485562108e-13 0.999997615814209 0.002184694167226553 
vn -1.0341130485562108e-13 0.999997615814209 0.002184694167226553 
vn -1.0341130485562108e-13 0.999997615814209 0.002184694167226553 
vn -1.0341130485562108e-13 0.999997615814209 0.002184694167226553 
vn -1.0341130485562108e-13 0.999997615814209 0.002184694167226553 
vn -1.0341130485562108e-13 0.999997615814209 0.002184694167226553 
vn -1.0341130485562108e-13 0.999997615814209 0.002184694167226553 
vn -1.0341130485562108e-13 0.999997615814209 0.002184694167226553 
vn -1.0341130485562108e-13 0.999997615814209 0.002184694167226553 
vn -1.0341130485562108e-13 0.999997615814209 -0.002184694167226553 
vn -1.0341130485562108e-13 0.999997615814209 0.002184694167226553 
vn -1.0341130485562108e-13 0.999997615814209 -0.002184694167226553 
vn -1.0341130485562108e-13 0.999997615814209 0.002184694167226553 
vn -1.0341130485562108e-13 0.999997615814209 0.002184694167226553 
vn -1.0341130485562108e-13 0.999997615814209 0.002184694167226553 
vn -1.0341130485562108e-13 0.999997615814209 0.002184694167226553 
vn -1.0341130485562108e-13 0.999997615814209 0.002184694167226553 
vn 0.999997615814209 0 0.002184694167226553 
vn 0.999997615814209 0 0.002184694167226553 
vn 0.999997615814209 0 0.002184694167226553 
vn 0.999997615814209 0 0.002184694167226553 
vn 0 0 1 
vn 0 0 1 
vn 0 0 1 
vn 0 0 1 
vn -2.0682311115474694e-13 0 -1 
vn -2.0682311115474694e-13 0 -1 
vn -2.0682311115474694e-13 0 -1 
vn -2.0682311115474694e-13 0 -1 
vn -0.999997615814209 -2.0682260971124217e-13 0.002184694167226553 
vn -0.999997615814209 -2.0682260971124217e-13 0.002184694167226553 
vn -0.999997615814209 -2.0682260971124217e-13 0.002184694167226553 
vn -0.999997615814209 -2.0682260971124217e-13 0.002184694167226553 
vn -0.999997615814209 -2.0682260971124217e-13 -0.002184694167226553 
vn -0.999997615814209 -2.0682260971124217e-13 -0.002184694167226553 
vn -0.999997615814209 -2.0682260971124217e-13 -0.002184694167226553 
vn -0.999997615814209 -2.0682260971124217e-13 -0.002184694167226553 
vn 0.0037933827843517065 -0.02151334285736084 -0.9997613430023193 
vn 0.0037933827843517065 -0.02151334285736084 -0.9997613430023193 
vn 0.0037933827843517065 -0.02151334285736084 -0.9997613430023193 
vn 0.0037933827843517065 -0.02151334285736084 -0.9997613430023193 
vn -2.259048305272007e-15 0.021845221519470215 0.9997613430023193 
vn -2.259048305272007e-15 0.021845221519470215 0.9997613430023193 
vn -2.259048305272007e-15 0.021845221519470215 0.9997613430023193 
vn -2.259048305272007e-15 0.021845221519470215 0.9997613430023193 
vn 0.999997615814209 0 0.002184694167226553 
vn 0.999997615814209 0 0.002184694167226553 
vn 0.999997615814209 0 0.002184694167226553 
vn 0.999997615814209 0 0.002184694167226553 
s on 
f 1//1 2//2 3//3 
f 2//2 4//4 3//3 
f 3//3 4//4 4//4 
f 4//4 5//5 4//4 
f 4//4 5//5 5//5 
f 5//5 6//6 5//5 
f 5//5 6//6 7//7 
f 6//6 8//8 7//7 
f 7//7 8//8 8//8 
f 8//8 9//9 8//8 
f 8//8 9//9 9//9 
f 9//9 10//10 9//9 
f 9//9 10//10 11//11 
f 10//10 12//12 11//11 
f 11//11 12//12 12//12 
f 12//12 13//13 12//12 
f 12//12 13//13 13//13 
f 13//13 14//14 13//13 
f 13//13 14//14 15//15 
f 14//14 16//16 15//15 
f 15//15 16//16 16//16 
f 16//16 17//17 16//16 
f 16//16 17//17 17//17 
f 17//17 18//18 17//17 
f 17//17 18//18 19//19 
f 18//18 20//20 19//19 
f 19//19 20//20 20//20 
f 20//20 21//21 20//20 
f 20//20 21//21 21//21 
f 21//21 22//22 21//21 
f 21//21 22//22 23//23 
f 22//22 24//24 23//23 
f 23//23 24//24 24//24 
f 24//24 25//25 24//24 
f 24//24 25//25 25//25 
f 25//25 26//26 25//25 
f 25//25 26//26 27//27 
f 26//26 28//28 27//27 
f 27//27 28//28 28//28 
f 28//28 29//29 28//28 
f 28//28 29//29 29//29 
f 29//29 30//30 29//29 
f 29//29 30//30 31//31 
f 30//30 32//32 31//31 
f 31//31 32//32 32//32 
f 32//32 33//33 32//32 
f 32//32 33//33 33//33 
f 33//33 34//34 33//33 
f 33//33 34//34 35//35 
f 34//34 36//36 35//35 
f 35//35 36//36 36//36 
f 36//36 37//37 36//36 
f 36//36 37//37 37//37 
f 37//37 38//38 37//37 
f 37//37 38//38 39//39 
f 38//38 40//40 39//39 
f 39//39 40//40 40//40 
f 40//40 41//41 40//40 
f 40//40 41//41 41//41 
f 41//41 42//42 41//41 
f 41//41 42//42 43//43 
f 42//42 44//44 43//43 
f 43//43 44//44 44//44 
f 44//44 45//45 44//44 
f 44//44 45//45 45//45 
f 45//45 46//46 45//45 
f 45//45 46//46 47//47 
f 46//46 48//48 47//47 
f 47//47 48//48 48//48 
f 48//48 49//49 48//48 
f 48//48 49//49 49//49 
f 49//49 50//50 49//49 
f 49//49 50//50 51//51 
f 50//50 52//52 51//51 
f 51//51 52//52 52//52 
f 52//52 53//53 52//52 
f 52//52 53//53 53//53 
f 53//53 54//54 53//53 
f 53//53 54//54 55//55 
f 54//54 56//56 55//55 

