mtllib model_16.mtl
o model_16
v -684 48 -2135.998779296875 
v -684 48 1752.0157470703125 
v 2051.998779296875 48 -2135.998779296875 
v 2051.998779296875 48 1752.0157470703125 
vn -1.0341130485562108e-13 0.999997615814209 0.002184694167226553 
vn -1.0341130485562108e-13 0.999997615814209 0.002184694167226553 
vn -1.0341130485562108e-13 0.999997615814209 0.002184694167226553 
vn -1.0341130485562108e-13 0.999997615814209 0.002184694167226553 
vt 11.052098274230957 7.073628902435303 
vt -10.052000045776367 7.073628902435303 
vt 11.052098274230957 -7.777369976043701 
vt -10.052000045776367 -7.777369976043701 
s on 
f 1/1/1 2/2/2 3/3/3 
f 2/2/2 4/4/4 3/3/3 

